<svg id="Livello_1" data-name="Livello 1" xmlns="http://www.w3.org/2000/svg" viewBox="0 0 29 29"><defs><style>.cls-1{fill:#fff;}</style></defs><title>FantaBidIcone29x1</title><path class="cls-1" d="M14.5,5.11A9.39,9.39,0,1,1,5.11,14.5,9.4,9.4,0,0,1,14.5,5.11m0-.52a9.91,9.91,0,1,0,9.91,9.91A9.91,9.91,0,0,0,14.5,4.59Z"/><path class="cls-1" d="M11.07,10.63v7.23h1.75a.37.37,0,0,1,.26.07.26.26,0,0,1,.08.19.25.25,0,0,1-.08.18.37.37,0,0,1-.26.07h-4a.37.37,0,0,1-.26-.07.25.25,0,0,1-.08-.18.26.26,0,0,1,.08-.19.37.37,0,0,1,.26-.07h1.76V11.33l-1.67.53-.18,0a.23.23,0,0,1-.17-.07.24.24,0,0,1-.07-.18.27.27,0,0,1,.06-.17.67.67,0,0,1,.2-.11Z"/><path class="cls-1" d="M19.25,16.24H15.86v-.6l2.84-4.91h1.07v5h.42a.44.44,0,0,1,.27.07.26.26,0,0,1,.08.19.25.25,0,0,1-.08.18.38.38,0,0,1-.27.08h-.42v1.62h.42a.38.38,0,0,1,.27.07.26.26,0,0,1,.08.19.25.25,0,0,1-.08.18.38.38,0,0,1-.27.07h-1.9A.37.37,0,0,1,18,18.3a.22.22,0,0,1-.08-.18.22.22,0,0,1,.08-.19.37.37,0,0,1,.26-.07h1Zm0-.52V11.25H19l-2.59,4.47Z"/></svg>