<svg id="Livello_1" data-name="Livello 1" xmlns="http://www.w3.org/2000/svg" viewBox="0 0 60 60"><defs><style>.cls-1{fill:#fff;}</style></defs><title>FantaBidIcone60x3</title><path class="cls-1" d="M30,7.34A22.66,22.66,0,1,1,7.34,30,22.68,22.68,0,0,1,30,7.34m0-1.27A23.93,23.93,0,1,0,53.93,30,23.94,23.94,0,0,0,30,6.07Z"/><path class="cls-1" d="M21.71,20.65V38.11h4.23a1,1,0,0,1,.64.17.59.59,0,0,1,.19.45.6.6,0,0,1-.19.44.92.92,0,0,1-.64.18H16.25a.92.92,0,0,1-.64-.18.6.6,0,0,1-.19-.44.59.59,0,0,1,.19-.45,1,1,0,0,1,.64-.17h4.23V22.36l-4,1.26a1.66,1.66,0,0,1-.42.09.57.57,0,0,1-.41-.18.62.62,0,0,1-.18-.44.72.72,0,0,1,.14-.41,1.42,1.42,0,0,1,.49-.25Z"/><path class="cls-1" d="M41.46,34.19H33.28V32.76L40.14,20.9h2.57V33h1a1,1,0,0,1,.65.17.6.6,0,0,1,.19.45.6.6,0,0,1-.19.44,1,1,0,0,1-.65.18h-1v3.92h1a1,1,0,0,1,.65.17.59.59,0,0,1,.19.45.6.6,0,0,1-.19.44,1,1,0,0,1-.65.18H39.16a.94.94,0,0,1-.65-.18.56.56,0,0,1-.19-.44.55.55,0,0,1,.19-.45,1,1,0,0,1,.65-.17h2.3Zm0-1.24V22.15h-.64L34.57,33Z"/></svg>