<svg id="Livello_1" data-name="Livello 1" xmlns="http://www.w3.org/2000/svg" viewBox="0 0 20 20"><defs><style>.cls-1{fill:#fff;}</style></defs><title>FantaBidIcone20x1</title><path class="cls-1" d="M10,3.52A6.48,6.48,0,1,1,3.52,10,6.49,6.49,0,0,1,10,3.52m0-.36A6.84,6.84,0,1,0,16.84,10,6.84,6.84,0,0,0,10,3.16Z"/><path class="cls-1" d="M7.63,7.33v5H8.84c.09,0,.15,0,.18,0a.14.14,0,0,1,.06.12.16.16,0,0,1-.06.13.26.26,0,0,1-.18.05H6.07a.3.3,0,0,1-.18-.05.16.16,0,0,1-.06-.13.14.14,0,0,1,.06-.12.24.24,0,0,1,.18,0H7.28V7.82l-1.15.36L6,8.2a.16.16,0,0,1-.12,0,.18.18,0,0,1,0-.12.17.17,0,0,1,0-.12A.35.35,0,0,1,6,7.84Z"/><path class="cls-1" d="M13.27,11.2H10.94v-.41l2-3.39h.73v3.44h.3a.3.3,0,0,1,.18.05.15.15,0,0,1,.05.13.17.17,0,0,1-.05.13.3.3,0,0,1-.18,0h-.3v1.12h.3a.24.24,0,0,1,.18,0,.13.13,0,0,1,.05.12.15.15,0,0,1-.05.13.3.3,0,0,1-.18.05H12.62a.31.31,0,0,1-.19-.05.15.15,0,0,1,0-.13.13.13,0,0,1,0-.12.26.26,0,0,1,.19,0h.65Zm0-.36V7.76h-.18l-1.78,3.08Z"/></svg>