<svg id="Livello_1" data-name="Livello 1" xmlns="http://www.w3.org/2000/svg" viewBox="0 0 76 76"><defs><style>.cls-1{fill:#fff;}</style></defs><title>FantaBidIcone76x1</title><path class="cls-1" d="M38,13.39A24.61,24.61,0,1,1,13.39,38,24.64,24.64,0,0,1,38,13.39M38,12A26,26,0,1,0,64,38,26,26,0,0,0,38,12Z"/><path class="cls-1" d="M29,27.85v19h4.6a1,1,0,0,1,.68.18.61.61,0,0,1,.21.49.63.63,0,0,1-.21.48,1,1,0,0,1-.68.19H23.07a1.05,1.05,0,0,1-.69-.19.63.63,0,0,1-.21-.48.61.61,0,0,1,.21-.49,1.06,1.06,0,0,1,.69-.18h4.59V29.7l-4.37,1.38a2,2,0,0,1-.46.09.58.58,0,0,1-.44-.2.65.65,0,0,1-.2-.47.71.71,0,0,1,.16-.45,1.65,1.65,0,0,1,.53-.27Z"/><path class="cls-1" d="M50.44,42.55H41.56V41L49,28.12H51.8V41.21h1.12a1.07,1.07,0,0,1,.7.18.61.61,0,0,1,.21.49.63.63,0,0,1-.21.48,1.07,1.07,0,0,1-.7.19H51.8v4.26h1.12a1.07,1.07,0,0,1,.7.18.61.61,0,0,1,.21.49.63.63,0,0,1-.21.48,1.07,1.07,0,0,1-.7.19h-5a1.07,1.07,0,0,1-.7-.19.63.63,0,0,1-.21-.48.61.61,0,0,1,.21-.49,1.07,1.07,0,0,1,.7-.18h2.5Zm0-1.34V29.48h-.7L43,41.21Z"/></svg>