<svg id="Livello_1" data-name="Livello 1" xmlns="http://www.w3.org/2000/svg" viewBox="0 0 1024 1024"><defs><style>.cls-1{fill:#fff;}</style></defs><title>FantaBidIcone1024x1</title><path class="cls-1" d="M512,177.22a333.69,333.69,0,1,1-130.31,26.3A332.77,332.77,0,0,1,512,177.22m0-18.64c-195.19,0-353.42,158.23-353.42,353.42S316.81,865.42,512,865.42,865.42,707.19,865.42,512,707.19,158.58,512,158.58Z"/><path class="cls-1" d="M389.57,374V631.82h62.52q6.51,0,9.33,2.5a8.41,8.41,0,0,1,2.83,6.62,8.51,8.51,0,0,1-2.83,6.51c-1.88,1.74-5,2.6-9.33,2.6H308.83c-4.34,0-7.46-.86-9.34-2.6a8.5,8.5,0,0,1-2.82-6.51,8.4,8.4,0,0,1,2.82-6.62c1.88-1.67,5-2.5,9.34-2.5h62.51V399.13l-59.47,18.66a25.26,25.26,0,0,1-6.3,1.31,8.31,8.31,0,0,1-6-2.72,8.74,8.74,0,0,1-2.71-6.4,9.76,9.76,0,0,1,2.17-6.08c1.16-1.16,3.54-2.39,7.16-3.69Z"/><path class="cls-1" d="M681.31,573.86H560.41V552.81L661.78,377.64h38v178H715q6.72,0,9.55,2.5a8.4,8.4,0,0,1,2.82,6.62,8.5,8.5,0,0,1-2.82,6.51q-2.82,2.61-9.55,2.6h-15.2v58H715q6.72,0,9.55,2.5a8.4,8.4,0,0,1,2.82,6.62,8.5,8.5,0,0,1-2.82,6.51q-2.82,2.61-9.55,2.6H647.23q-6.72,0-9.55-2.6a8.5,8.5,0,0,1-2.82-6.51,8.4,8.4,0,0,1,2.82-6.62q2.82-2.51,9.55-2.5h34.08Zm0-18.23V396.09h-9.55L579.51,555.63Z"/></svg>