<svg id="Livello_1" data-name="Livello 1" xmlns="http://www.w3.org/2000/svg" viewBox="0 0 40 40"><defs><style>.cls-1{fill:#fff;}</style></defs><title>FantaBidIcone40x2</title><path class="cls-1" d="M20,7.05A13,13,0,1,1,7.05,20,13,13,0,0,1,20,7.05m0-.72A13.67,13.67,0,1,0,33.67,20,13.67,13.67,0,0,0,20,6.33Z"/><path class="cls-1" d="M15.26,14.66v10h2.42a.56.56,0,0,1,.36.09.31.31,0,0,1,.11.26.31.31,0,0,1-.11.25.5.5,0,0,1-.36.1H12.14a.5.5,0,0,1-.36-.1.34.34,0,0,1-.11-.25.35.35,0,0,1,.11-.26.56.56,0,0,1,.36-.09h2.42v-9l-2.3.73a1.19,1.19,0,0,1-.25.05.36.36,0,0,1-.33-.36.4.4,0,0,1,.08-.23.79.79,0,0,1,.28-.14Z"/><path class="cls-1" d="M26.55,22.39H21.87v-.81l3.92-6.78h1.47v6.89h.59a.59.59,0,0,1,.37.09.35.35,0,0,1,.11.26.33.33,0,0,1-.11.25.53.53,0,0,1-.37.1h-.59v2.25h.59a.59.59,0,0,1,.37.09.35.35,0,0,1,.11.26.34.34,0,0,1-.11.25.53.53,0,0,1-.37.1H25.23a.53.53,0,0,1-.37-.1.34.34,0,0,1-.11-.25.35.35,0,0,1,.11-.26.59.59,0,0,1,.37-.09h1.32Zm0-.7V15.52h-.37l-3.57,6.17Z"/></svg>