<svg id="Livello_2" data-name="Livello 2" xmlns="http://www.w3.org/2000/svg" viewBox="0 0 1024 1024"><defs><style>.cls-1,.cls-2{fill:#fff;}.cls-1{stroke:#f1f2f2;stroke-miterlimit:10;stroke-width:8.91px;}</style></defs><title>Orange1024</title><path class="cls-1" d="M391.5,375.93V630.5h61.71q6.44,0,9.22,2.46a9,9,0,0,1,0,13q-2.79,2.57-9.22,2.57H311.79q-6.44,0-9.22-2.57a9,9,0,0,1,0-13q2.79-2.46,9.22-2.46H373.5V400.79l-58.71,18.42a24.76,24.76,0,0,1-6.22,1.29,8.17,8.17,0,0,1-5.89-2.68A8.62,8.62,0,0,1,300,411.5a9.65,9.65,0,0,1,2.14-6c1.14-1.14,3.5-2.36,7.07-3.64Z"/><path class="cls-1" d="M680.5,573.5h-120V552.58L660.88,378.5H698.5v176h15q6.64,0,9.43,2.46a9,9,0,0,1,0,13q-2.79,2.57-9.43,2.57h-15v58h15q6.64,0,9.43,2.46a9,9,0,0,1,0,13q-2.79,2.57-9.43,2.57H646.64q-6.64,0-9.43-2.57a9,9,0,0,1,0-13q2.79-2.46,9.43-2.46H680.5Zm0-19v-158H671l-91.36,158Z"/><path class="cls-2" d="M512,206.56a304.4,304.4,0,1,1-118.88,24,303.44,303.44,0,0,1,118.88-24M512,162c-193.3,0-350,156.7-350,350S318.7,862,512,862,862,705.3,862,512,705.3,162,512,162Z"/></svg>