<svg id="Livello_2" data-name="Livello 2" xmlns="http://www.w3.org/2000/svg" viewBox="0 0 1024 1024"><defs><style>.cls-1{fill:#f1f2f2;}.cls-2,.cls-3{fill:#fff;}.cls-2{stroke:#f1f2f2;stroke-miterlimit:10;stroke-width:9px;}</style></defs><title>Orange1024_b</title><rect class="cls-1" width="1024" height="1024"/><path class="cls-2" d="M389.57,374V631.82h62.52q6.51,0,9.33,2.5a8.41,8.41,0,0,1,2.83,6.62,8.51,8.51,0,0,1-2.83,6.51c-1.88,1.74-5,2.6-9.33,2.6H308.83c-4.35,0-7.46-.86-9.34-2.6a8.5,8.5,0,0,1-2.82-6.51,8.4,8.4,0,0,1,2.82-6.62q2.82-2.51,9.34-2.5h62.51V399.13l-59.48,18.66a25.12,25.12,0,0,1-6.29,1.31,8.31,8.31,0,0,1-6-2.72,8.74,8.74,0,0,1-2.71-6.4,9.76,9.76,0,0,1,2.17-6.08q1.72-1.74,7.16-3.69Z"/><path class="cls-2" d="M681.31,573.86H560.41V552.81L661.78,377.64h38v178H715q6.72,0,9.55,2.5a8.4,8.4,0,0,1,2.82,6.62,8.5,8.5,0,0,1-2.82,6.51q-2.84,2.61-9.55,2.6h-15.2v58H715q6.72,0,9.55,2.5a8.4,8.4,0,0,1,2.82,6.62,8.5,8.5,0,0,1-2.82,6.51q-2.84,2.61-9.55,2.6H647.23q-6.74,0-9.55-2.6a8.5,8.5,0,0,1-2.82-6.51,8.4,8.4,0,0,1,2.82-6.62q2.82-2.51,9.55-2.5h34.08Zm0-18.23V396.09h-9.55L579.51,555.63Z"/><path class="cls-3" d="M512,203.58A307.26,307.26,0,1,1,392,227.8a306.47,306.47,0,0,1,120-24.22m0-45c-195.19,0-353.42,158.23-353.42,353.42S316.81,865.42,512,865.42,865.42,707.19,865.42,512,707.19,158.58,512,158.58Z"/></svg>