<svg xmlns="http://www.w3.org/2000/svg" xmlns:xlink="http://www.w3.org/1999/xlink" viewBox="0 0 700 700"><defs><style>.cls-1{fill:none;}.cls-2{clip-path:url(#clip-path);}.cls-3,.cls-4{fill:#fff;}.cls-3{stroke:#f1f2f2;stroke-miterlimit:10;stroke-width:8.91px;}</style><clipPath id="clip-path" transform="translate(-162 -162)"><rect class="cls-1" width="1024" height="1024"/></clipPath></defs><title>OrangeRisorsa 1</title><g id="Livello_2" data-name="Livello 2"><g id="Livello_2-2" data-name="Livello 2"><path class="cls-3" d="M390.76,375.28V630.66h61.91c4.3,0,7.38.83,9.24,2.47a9,9,0,0,1,0,13q-2.79,2.58-9.24,2.58H310.79q-6.45,0-9.24-2.58a9,9,0,0,1,0-13c1.86-1.64,4.94-2.47,9.24-2.47H372.7V400.22L313.8,418.7a24.9,24.9,0,0,1-6.23,1.29,8.21,8.21,0,0,1-5.91-2.68A8.65,8.65,0,0,1,299,411a9.64,9.64,0,0,1,2.15-6c1.14-1.15,3.51-2.37,7.09-3.66Z" transform="translate(-162 -162)"/><path class="cls-3" d="M679.67,573.27H559.94V552.41L660.33,378.94H698V555.21h15c4.44,0,7.6.82,9.46,2.47a9,9,0,0,1,0,13q-2.79,2.58-9.46,2.58H698v57.39h15c4.44,0,7.6.83,9.46,2.47a9,9,0,0,1,0,13q-2.79,2.58-9.46,2.58H645.92q-6.66,0-9.45-2.58a9,9,0,0,1,0-13c1.86-1.64,5-2.47,9.45-2.47h33.75Zm0-18.06v-158h-9.45l-91.37,158Z" transform="translate(-162 -162)"/><path class="cls-4" d="M512,206.56a304.4,304.4,0,1,1-118.88,24,303.44,303.44,0,0,1,118.88-24M512,162c-193.3,0-350,156.7-350,350S318.7,862,512,862,862,705.3,862,512,705.3,162,512,162Z" transform="translate(-162 -162)"/></g></g></svg>